<svg xmlns="http://www.w3.org/2000/svg"
     xmlns:xlink="http://www.w3.org/1999/xlink"
     viewBox="0 0 900 260" width="900" height="260"
     style="border-radius:12px;overflow:hidden;background:#1e1c12">
  <defs>
    <!-- Shading & Glows -->
    <filter id="magic-glow">
      <feGaussianBlur in="SourceGraphic" stdDeviation="3" result="blur"/>
      <feMerge>
        <feMergeNode in="blur"/>
        <feMergeNode in="SourceGraphic"/>
      </feMerge>
    </filter>
    
    <linearGradient id="crystal-shade" x1="0" y1="0" x2="1" y2="1">
      <stop offset="0%" stop-color="#ffffff"/>
      <stop offset="30%" stop-color="#f1c40f"/>
      <stop offset="100%" stop-color="#2c1a3b"/>
    </linearGradient>

    <!-- Stonework Masonry Pattern -->
    <pattern id="masonry" width="120" height="60" patternUnits="userSpaceOnUse">
      <path d="M 0,30 L 120,30 M 60,0 L 60,30 M 120,30 L 120,60 M 0,30 L 0,60 M 30,30 L 30,60 M 90,30 L 90,60" 
        fill="none" stroke="rgba(255,255,255,0.015)" stroke-width="2"/>
    </pattern>
  </defs>

  <!-- Brick Wall Texture -->
  <rect width="900" height="260" fill="url(#masonry)"/>

  <!-- Shelf Back Shading -->
  <rect x="20" y="72" width="860" height="8" fill="rgba(0,0,0,0.3)"/>
  <rect x="20" y="137" width="860" height="8" fill="rgba(0,0,0,0.3)"/>
  <rect x="20" y="202" width="860" height="8" fill="rgba(0,0,0,0.3)"/>

  <!-- Shelves -->
  <rect class="shelf" x="20" y="80" width="860" height="6" fill="#4a3f2b" rx="1"/>
  <rect class="shelf" x="20" y="145" width="860" height="6" fill="#4a3f2b" rx="1"/>
  <rect class="counter" x="20" y="210" width="860" height="12" fill="#4a3f2b" rx="2"/>

  <!-- Lab Assets on Shelves -->
  <g class="lab-asset" style="animation-delay:0.00s">
          <!-- Retort body -->
          <path d="M 38.4,79 C 38.4,50 61.6,50 61.6,79 Z" fill="#e67e22"/>
          <!-- Condensing tube -->
          <path d="M 55.8,58.7 Q 67.4,64.5 64.5,79" fill="none" stroke="#fff" stroke-width="1.5" opacity="0.7"/>
          <rect x="49" y="54.35" width="2" height="4.35" fill="#fff"/>
        </g>
  <g class="lab-asset" style="animation-delay:0.12s">
          <!-- Cover -->
          <rect x="95" y="47" width="10" height="32" fill="#5a2d0c" rx="1"/>
          <!-- Gold spine bands -->
          <line x1="95" y1="53.4" x2="105" y2="53.4" stroke="#e74c3c" stroke-width="1.5"/>
          <line x1="95" y1="72.6" x2="105" y2="72.6" stroke="#e74c3c" stroke-width="1.5"/>
          <!-- Page edges showing -->
          <rect x="103" y="48" width="1.5" height="30" fill="#fdfefe"/>
        </g>
  <g class="lab-asset" style="animation-delay:0.24s">
          <!-- Retort body -->
          <path d="M 138,79 C 138,49 162,49 162,79 Z" fill="#3498db"/>
          <!-- Condensing tube -->
          <path d="M 156,58 Q 168,64 165,79" fill="none" stroke="#fff" stroke-width="1.5" opacity="0.7"/>
          <rect x="149" y="53.5" width="2" height="4.5" fill="#fff"/>
        </g>
  <g class="lab-asset" style="animation-delay:0.36s">
          <!-- Retort body -->
          <path d="M 188.4,79 C 188.4,50 211.6,50 211.6,79 Z" fill="#3498db"/>
          <!-- Condensing tube -->
          <path d="M 205.8,58.7 Q 217.4,64.5 214.5,79" fill="none" stroke="#fff" stroke-width="1.5" opacity="0.7"/>
          <rect x="199" y="54.35" width="2" height="4.35" fill="#fff"/>
        </g>
  <g class="lab-asset" style="animation-delay:0.48s">
          <!-- Neck -->
          <line x1="250" y1="70.2" x2="250" y2="57" stroke="#fff" stroke-width="2" opacity="0.6"/>
          <!-- Body -->
          <circle cx="250" cy="70.2" r="8.8" fill="#e67e22"/>
          <circle cx="250" cy="70.2" r="8.8" fill="none" stroke="#fff" stroke-width="0.8" opacity="0.5"/>
          <!-- Bubbles inside boiling flask -->
          
        </g>
  <g class="lab-asset" style="animation-delay:0.60s">
          <line x1="300" y1="79" x2="300" y2="60" stroke="#e67e22" stroke-width="4" stroke-linecap="round"/>
          <circle cx="300" cy="60" r="2.5" fill="#ffffff" opacity="0.7"/>
        </g>
  <g class="lab-asset" style="animation-delay:0.72s">
          <line x1="350" y1="79" x2="350" y2="60" stroke="#9b59b6" stroke-width="4" stroke-linecap="round"/>
          <circle cx="350" cy="60" r="2.5" fill="#ffffff" opacity="0.7"/>
        </g>
  
  <g class="lab-asset" style="animation-delay:0.96s">
          <!-- Retort body -->
          <path d="M 438.8,79 C 438.8,51 461.2,51 461.2,79 Z" fill="#9b59b6"/>
          <!-- Condensing tube -->
          <path d="M 455.6,59.400000000000006 Q 466.8,65 464,79" fill="none" stroke="#fff" stroke-width="1.5" opacity="0.7"/>
          <rect x="449" y="55.2" width="2" height="4.2" fill="#fff"/>
        </g>
  
  
  
  
  <g class="lab-asset" style="animation-delay:1.56s">
          <!-- Neck -->
          <line x1="700" y1="70.2" x2="700" y2="57" stroke="#fff" stroke-width="2" opacity="0.6"/>
          <!-- Body -->
          <circle cx="700" cy="70.2" r="8.8" fill="#3498db"/>
          <circle cx="700" cy="70.2" r="8.8" fill="none" stroke="#fff" stroke-width="0.8" opacity="0.5"/>
          <!-- Bubbles inside boiling flask -->
          
        </g>
  <g class="lab-asset" style="animation-delay:1.68s">
          <!-- Neck -->
          <line x1="750" y1="69.4" x2="750" y2="55" stroke="#fff" stroke-width="2" opacity="0.6"/>
          <!-- Body -->
          <circle cx="750" cy="69.4" r="9.600000000000001" fill="#f1c40f"/>
          <circle cx="750" cy="69.4" r="9.600000000000001" fill="none" stroke="#fff" stroke-width="0.8" opacity="0.5"/>
          <!-- Bubbles inside boiling flask -->
          <circle class="flask-bubble" cx="748" cy="71.4" r="1" fill="#fff"/>
                               <circle class="flask-bubble" cx="752" cy="68.4" r="0.8" fill="#fff" style="animation-delay:0.4s"/>
        </g>
  <g class="lab-asset" style="animation-delay:1.80s">
          <!-- Retort body -->
          <path d="M 788.8,79 C 788.8,51 811.2,51 811.2,79 Z" fill="#1abc9c"/>
          <!-- Condensing tube -->
          <path d="M 805.6,59.400000000000006 Q 816.8,65 814,79" fill="none" stroke="#fff" stroke-width="1.5" opacity="0.7"/>
          <rect x="799" y="55.2" width="2" height="4.2" fill="#fff"/>
        </g>
  <g class="lab-asset" style="animation-delay:1.92s">
          <line x1="850" y1="79" x2="850" y2="64" stroke="#e74c3c" stroke-width="4" stroke-linecap="round"/>
          <circle cx="850" cy="64" r="2.5" fill="#ffffff" opacity="0.7"/>
        </g>
  
  
  
  
  
  
  
  
  
  <g class="lab-asset" style="animation-delay:1.08s">
          <line x1="500" y1="144" x2="500" y2="129" stroke="#1abc9c" stroke-width="4" stroke-linecap="round"/>
          <circle cx="500" cy="129" r="2.5" fill="#ffffff" opacity="0.7"/>
        </g>
  <g class="lab-asset" style="animation-delay:1.20s">
          <line x1="550" y1="144" x2="550" y2="125" stroke="#e74c3c" stroke-width="4" stroke-linecap="round"/>
          <circle cx="550" cy="125" r="2.5" fill="#ffffff" opacity="0.7"/>
        </g>
  
  
  
  
  
  
  
  
  <g class="lab-asset" style="animation-delay:0.24s">
          <!-- Neck -->
          <line x1="144" y1="200.2" x2="144" y2="187" stroke="#fff" stroke-width="2" opacity="0.6"/>
          <!-- Body -->
          <circle cx="144" cy="200.2" r="8.8" fill="#1abc9c"/>
          <circle cx="144" cy="200.2" r="8.8" fill="none" stroke="#fff" stroke-width="0.8" opacity="0.5"/>
          <!-- Bubbles inside boiling flask -->
          
        </g>
  <g class="lab-asset" style="animation-delay:0.36s">
          <!-- Retort body -->
          <path d="M 180.6,209 C 180.6,183 201.4,183 201.4,209 Z" fill="#f1c40f"/>
          <!-- Condensing tube -->
          <path d="M 196.2,190.8 Q 206.6,196 204,209" fill="none" stroke="#fff" stroke-width="1.5" opacity="0.7"/>
          <rect x="190" y="186.9" width="2" height="3.9" fill="#fff"/>
        </g>
  <g class="lab-asset" style="animation-delay:0.48s">
          <line x1="238" y1="209" x2="238" y2="194" stroke="#1abc9c" stroke-width="4" stroke-linecap="round"/>
          <circle cx="238" cy="194" r="2.5" fill="#ffffff" opacity="0.7"/>
        </g>
  <g class="lab-asset" style="animation-delay:0.60s">
          <!-- Cover -->
          <rect x="280" y="173" width="10" height="36" fill="#5a2d0c" rx="1"/>
          <!-- Gold spine bands -->
          <line x1="280" y1="180.2" x2="290" y2="180.2" stroke="#e74c3c" stroke-width="1.5"/>
          <line x1="280" y1="201.8" x2="290" y2="201.8" stroke="#e74c3c" stroke-width="1.5"/>
          <!-- Page edges showing -->
          <rect x="288" y="174" width="1.5" height="34" fill="#fdfefe"/>
        </g>
  <g class="lab-asset" style="animation-delay:0.72s">
          <!-- Cover -->
          <rect x="327" y="175" width="10" height="34" fill="#5a2d0c" rx="1"/>
          <!-- Gold spine bands -->
          <line x1="327" y1="181.8" x2="337" y2="181.8" stroke="#3498db" stroke-width="1.5"/>
          <line x1="327" y1="202.2" x2="337" y2="202.2" stroke="#3498db" stroke-width="1.5"/>
          <!-- Page edges showing -->
          <rect x="335" y="176" width="1.5" height="32" fill="#fdfefe"/>
        </g>
  <g class="lab-asset" style="animation-delay:0.84s">
          <!-- Neck -->
          <line x1="379" y1="200.2" x2="379" y2="187" stroke="#fff" stroke-width="2" opacity="0.6"/>
          <!-- Body -->
          <circle cx="379" cy="200.2" r="8.8" fill="#9b59b6"/>
          <circle cx="379" cy="200.2" r="8.8" fill="none" stroke="#fff" stroke-width="0.8" opacity="0.5"/>
          <!-- Bubbles inside boiling flask -->
          
        </g>
  <g class="lab-asset" style="animation-delay:0.96s">
          <!-- Neck -->
          <line x1="426" y1="200.2" x2="426" y2="187" stroke="#fff" stroke-width="2" opacity="0.6"/>
          <!-- Body -->
          <circle cx="426" cy="200.2" r="8.8" fill="#1abc9c"/>
          <circle cx="426" cy="200.2" r="8.8" fill="none" stroke="#fff" stroke-width="0.8" opacity="0.5"/>
          <!-- Bubbles inside boiling flask -->
          
        </g>
  <g class="lab-asset" style="animation-delay:1.08s">
          <!-- Neck -->
          <line x1="473" y1="200.2" x2="473" y2="187" stroke="#fff" stroke-width="2" opacity="0.6"/>
          <!-- Body -->
          <circle cx="473" cy="200.2" r="8.8" fill="#3498db"/>
          <circle cx="473" cy="200.2" r="8.8" fill="none" stroke="#fff" stroke-width="0.8" opacity="0.5"/>
          <!-- Bubbles inside boiling flask -->
          
        </g>
  
  <g class="lab-asset" style="animation-delay:1.32s">
          <!-- Neck -->
          <line x1="567" y1="199.4" x2="567" y2="185" stroke="#fff" stroke-width="2" opacity="0.6"/>
          <!-- Body -->
          <circle cx="567" cy="199.4" r="9.600000000000001" fill="#e67e22"/>
          <circle cx="567" cy="199.4" r="9.600000000000001" fill="none" stroke="#fff" stroke-width="0.8" opacity="0.5"/>
          <!-- Bubbles inside boiling flask -->
          <circle class="flask-bubble" cx="565" cy="201.4" r="1" fill="#fff"/>
                               <circle class="flask-bubble" cx="569" cy="198.4" r="0.8" fill="#fff" style="animation-delay:0.4s"/>
        </g>
  <g class="lab-asset" style="animation-delay:1.44s">
          <!-- Neck -->
          <line x1="614" y1="199.4" x2="614" y2="185" stroke="#fff" stroke-width="2" opacity="0.6"/>
          <!-- Body -->
          <circle cx="614" cy="199.4" r="9.600000000000001" fill="#9b59b6"/>
          <circle cx="614" cy="199.4" r="9.600000000000001" fill="none" stroke="#fff" stroke-width="0.8" opacity="0.5"/>
          <!-- Bubbles inside boiling flask -->
          <circle class="flask-bubble" cx="612" cy="201.4" r="1" fill="#fff"/>
                               <circle class="flask-bubble" cx="616" cy="198.4" r="0.8" fill="#fff" style="animation-delay:0.4s"/>
        </g>
  <g class="lab-asset" style="animation-delay:1.56s">
          <!-- Cover -->
          <rect x="656" y="176" width="10" height="33" fill="#5a2d0c" rx="1"/>
          <!-- Gold spine bands -->
          <line x1="656" y1="182.6" x2="666" y2="182.6" stroke="#3498db" stroke-width="1.5"/>
          <line x1="656" y1="202.4" x2="666" y2="202.4" stroke="#3498db" stroke-width="1.5"/>
          <!-- Page edges showing -->
          <rect x="664" y="177" width="1.5" height="31" fill="#fdfefe"/>
        </g>
  <g class="lab-asset" style="animation-delay:1.68s">
          <line x1="708" y1="209" x2="708" y2="194" stroke="#e67e22" stroke-width="4" stroke-linecap="round"/>
          <circle cx="708" cy="194" r="2.5" fill="#ffffff" opacity="0.7"/>
        </g>
  <g class="lab-asset" style="animation-delay:1.80s">
          <!-- Retort body -->
          <path d="M 743.8,209 C 743.8,181 766.2,181 766.2,209 Z" fill="#e67e22"/>
          <!-- Condensing tube -->
          <path d="M 760.6,189.4 Q 771.8,195 769,209" fill="none" stroke="#fff" stroke-width="1.5" opacity="0.7"/>
          <rect x="754" y="185.2" width="2" height="4.2" fill="#fff"/>
        </g>
  <g class="lab-asset" style="animation-delay:1.92s">
          <!-- Cover -->
          <rect x="797" y="175" width="10" height="34" fill="#5a2d0c" rx="1"/>
          <!-- Gold spine bands -->
          <line x1="797" y1="181.8" x2="807" y2="181.8" stroke="#9b59b6" stroke-width="1.5"/>
          <line x1="797" y1="202.2" x2="807" y2="202.2" stroke="#9b59b6" stroke-width="1.5"/>
          <!-- Page edges showing -->
          <rect x="805" y="176" width="1.5" height="32" fill="#fdfefe"/>
        </g>
  <g class="lab-asset" style="animation-delay:2.04s">
          <!-- Cover -->
          <rect x="844" y="156" width="10" height="53" fill="#5a2d0c" rx="1"/>
          <!-- Gold spine bands -->
          <line x1="844" y1="166.6" x2="854" y2="166.6" stroke="#9b59b6" stroke-width="1.5"/>
          <line x1="844" y1="198.4" x2="854" y2="198.4" stroke="#9b59b6" stroke-width="1.5"/>
          <!-- Page edges showing -->
          <rect x="852" y="157" width="1.5" height="51" fill="#fdfefe"/>
        </g>

  <!-- Summoned Familiars -->
  
        <g transform="translate(412, 195) scale(0.8999999999999999)" class="familiar-cat">
          <!-- Body -->
          <ellipse cx="0" cy="-6" rx="6" ry="8" fill="#1e272e"/>
          <!-- Head -->
          <circle cx="0" cy="-14" r="5" fill="#1e272e"/>
          <!-- Ears -->
          <polygon points="-4,-17 -4,-22 -1,-18" fill="#1e272e"/>
          <polygon points="4,-17 4,-22 1,-18" fill="#1e272e"/>
          <!-- Tail -->
          <path d="M -5,-3 C -10,-3 -12,-8 -10,-12" fill="none" stroke="#1e272e" stroke-width="2" stroke-linecap="round"/>
          <!-- Glowing Eyes -->
          <circle class="blinking-eye" cx="-1.8" cy="-14" r="0.8" fill="#f1c40f"/>
          <circle class="blinking-eye" cx="1.8" cy="-14" r="0.8" fill="#f1c40f"/>
        </g>
      
  
        <g transform="translate(724, 195) scale(0.7)" class="familiar-owl">
          <!-- Body -->
          <ellipse cx="0" cy="-8" rx="6" ry="9" fill="#d5c285"/>
          <!-- Head -->
          <circle class="owl-head" cx="0" cy="-18" r="6" fill="#d5c285"/>
          <!-- Eyes -->
          <circle cx="-2" cy="-18" r="1.8" fill="#fff"/>
          <circle cx="-2" cy="-18" r="0.8" fill="#000"/>
          <circle cx="2" cy="-18" r="1.8" fill="#fff"/>
          <circle cx="2" cy="-18" r="0.8" fill="#000"/>
          <!-- Beak -->
          <polygon points="0,-16 -1,-14 1,-14" fill="#e67e22"/>
          <!-- Wings -->
          <path d="M -6,-10 Q -10,-6 -6,-2" fill="none" stroke="#d5c285" stroke-width="2" stroke-linecap="round"/>
          <path d="M 6,-10 Q 10,-6 6,-2" fill="none" stroke="#d5c285" stroke-width="2" stroke-linecap="round"/>
        </g>
      

  <!-- Floating Mana Crystal in Center -->
  
    <g class="mana-crystal">
      <!-- Outer energy vortex -->
      <circle cx="450" cy="95" r="20.333333333333332" fill="none" stroke="#f1c40f" stroke-dasharray="10, 15" stroke-width="1.5" opacity="0.43333333333333335" filter="url(#magic-glow)" class="crystal-vortex"/>
      <circle cx="450" cy="95" r="35.33333333333333" fill="none" stroke="#f1c40f" stroke-dasharray="8, 25" stroke-width="1" opacity="0.26" filter="url(#magic-glow)" class="crystal-vortex" style="animation-direction:reverse; animation-duration:12s"/>

      <!-- Ambient glow -->
      <polygon points="450,60 468,95 450,130 432,95" fill="#f1c40f" opacity="0.43333333333333335" filter="url(#magic-glow)"/>

      <!-- Core Crystal facets -->
      <polygon points="450,65 464,95 450,125 436,95" fill="url(#crystal-shade)" stroke="#fff" stroke-width="0.8"/>
      <!-- Facet divisions -->
      <line x1="450" y1="65" x2="450" y2="125" stroke="#fff" stroke-width="0.5" opacity="0.7"/>
      <line x1="436" y1="95" x2="464" y2="95" stroke="#fff" stroke-width="0.5" opacity="0.7"/>
    </g>
  

  <!-- Floating Sparkles (Mana Energy Particles) -->
  
    <circle class="mana-sparkle" cx="461" cy="104" r="1.5" 
      fill="#f1c40f" filter="url(#magic-glow)"
      style="animation-duration:2s; animation-delay:0s"/>
  
  
    <circle class="mana-sparkle" cx="47" cy="38" r="2.5" 
      fill="#f1c40f" filter="url(#magic-glow)"
      style="animation-duration:3s; animation-delay:0.3s"/>
  
  
    <circle class="mana-sparkle" cx="483" cy="122" r="3.5" 
      fill="#f1c40f" filter="url(#magic-glow)"
      style="animation-duration:4s; animation-delay:0.6s"/>
  
  
    <circle class="mana-sparkle" cx="69" cy="56" r="1.5" 
      fill="#f1c40f" filter="url(#magic-glow)"
      style="animation-duration:5s; animation-delay:0.8999999999999999s"/>
  
  
    <circle class="mana-sparkle" cx="505" cy="140" r="2.5" 
      fill="#f1c40f" filter="url(#magic-glow)"
      style="animation-duration:2s; animation-delay:1.2s"/>
  

  <!-- Glitching smoke if open issues are high -->
  
    <!-- Thick magical fog rolling across countertop -->
    <path class="fog-cloud" d="M 0,225 C 100,210 200,210 300,225 C 400,210 500,210 600,225 C 700,210 800,210 900,225 L 900,260 L 0,260 Z" fill="rgba(155, 89, 182, 0.15)"/>
    <path class="fog-cloud" d="M 0,230 C 150,215 300,215 450,230 C 600,215 750,215 900,230 L 900,260 L 0,260 Z" fill="rgba(46, 204, 113, 0.1)" style="animation-delay:2s; animation-duration:15s"/>
  

  <!-- HUD Overlay -->
  
  <g>
    <rect x="8" y="8" width="220" height="22" rx="4" fill="rgba(0,0,0,0.6)" stroke="#4a3f2b" stroke-width="1"/>
    <text x="14" y="22" font-family="monospace" font-size="10" fill="#fff" font-weight="bold">
      🧪 Dasmat13's Lab · 401 transmutations
    </text>
  </g>
  <g>
    <rect x="650" y="8" width="200" height="22" rx="4" fill="rgba(0,0,0,0.6)" stroke="#4a3f2b" stroke-width="1"/>
    <text x="656" y="22" font-family="monospace" font-size="10" fill="#f1c40f" font-weight="bold">
      MANA: 20 units · STREAK: 8d
    </text>
  </g>

  <style>
    /* Floating Mana Crystal */
    .mana-crystal {
      animation: crystal-bob 6s ease-in-out infinite alternate;
      transform-origin: 450px 95px;
    }
    @keyframes crystal-bob {
      0%   { transform: translateY(-5px) rotate(-1deg); }
      100% { transform: translateY(5px) rotate(1deg); }
    }

    /* Crystal magic ring vortex */
    .crystal-vortex {
      transform-origin: 450px 95px;
      animation: vortex-spin 8s linear infinite;
    }
    @keyframes vortex-spin {
      to { transform: rotate(360deg); }
    }

    /* Floating mana sparkles */
    .mana-sparkle {
      animation: drift-sparkle infinite ease-in-out;
    }
    @keyframes drift-sparkle {
      0%   { transform: translateY(0) scale(0.5); opacity: 0; }
      50%  { opacity: 0.8; }
      100% { transform: translateY(-30px) scale(1.1); opacity: 0; }
    }

    /* Flask bubbles */
    .flask-bubble {
      animation: flask-bubble-rise 1.5s infinite linear;
    }
    @keyframes flask-bubble-rise {
      0%   { transform: translateY(0); opacity: 0; }
      50%  { opacity: 1; }
      100% { transform: translateY(-8px); opacity: 0; }
    }

    /* Waving lab assets */
    .lab-asset {
      animation: asset-jiggle 5s ease-in-out infinite alternate;
      transform-origin: bottom center;
    }
    @keyframes asset-jiggle {
      from { transform: rotate(-1deg) scaleY(0.99); }
      to   { transform: rotate(1deg) scaleY(1.01); }
    }

    /* Familiar animations */
    .blinking-eye {
      animation: cat-blink 4s infinite step-end;
    }
    @keyframes cat-blink {
      0%, 90% { transform: scaleY(1); }
      95%     { transform: scaleY(0.1); }
    }

    .owl-head {
      animation: owl-tilt 7s ease-in-out infinite alternate;
      transform-origin: 0px -18px;
    }
    @keyframes owl-tilt {
      0%, 40%   { transform: rotate(0deg); }
      50%, 90%  { transform: rotate(-25deg); }
      100%      { transform: rotate(15deg); }
    }

    .dragon-wing-l {
      animation: flap-l 0.8s ease-in-out infinite alternate;
      transform-origin: -4px -8px;
    }
    .dragon-wing-r {
      animation: flap-r 0.8s ease-in-out infinite alternate;
      transform-origin: 4px -8px;
    }
    @keyframes flap-l {
      from { transform: rotate(-10deg); }
      to   { transform: rotate(20deg); }
    }
    @keyframes flap-r {
      from { transform: rotate(10deg); }
      to   { transform: rotate(-20deg); }
    }

    /* Rolling magical fog clouds */
    .fog-cloud {
      animation: roll-fog 10s ease-in-out infinite alternate;
    }
    @keyframes roll-fog {
      from { transform: translateX(-15px); }
      to   { transform: translateX(15px); }
    }
  </style>
</svg>