<svg xmlns="http://www.w3.org/2000/svg"
     xmlns:xlink="http://www.w3.org/1999/xlink"
     viewBox="0 0 900 260" width="900" height="260"
     style="border-radius:12px;overflow:hidden;background:#0f1422">
  <defs>
    <!-- Shading & Glows -->
    <filter id="magic-glow">
      <feGaussianBlur in="SourceGraphic" stdDeviation="3" result="blur"/>
      <feMerge>
        <feMergeNode in="blur"/>
        <feMergeNode in="SourceGraphic"/>
      </feMerge>
    </filter>
    
    <linearGradient id="crystal-shade" x1="0" y1="0" x2="1" y2="1">
      <stop offset="0%" stop-color="#ffffff"/>
      <stop offset="30%" stop-color="#00d2ff"/>
      <stop offset="100%" stop-color="#2c1a3b"/>
    </linearGradient>

    <!-- Stonework Masonry Pattern -->
    <pattern id="masonry" width="120" height="60" patternUnits="userSpaceOnUse">
      <path d="M 0,30 L 120,30 M 60,0 L 60,30 M 120,30 L 120,60 M 0,30 L 0,60 M 30,30 L 30,60 M 90,30 L 90,60" 
        fill="none" stroke="rgba(255,255,255,0.015)" stroke-width="2"/>
    </pattern>
  </defs>

  <!-- Brick Wall Texture -->
  <rect width="900" height="260" fill="url(#masonry)"/>

  <!-- Shelf Back Shading -->
  <rect x="20" y="72" width="860" height="8" fill="rgba(0,0,0,0.3)"/>
  <rect x="20" y="137" width="860" height="8" fill="rgba(0,0,0,0.3)"/>
  <rect x="20" y="202" width="860" height="8" fill="rgba(0,0,0,0.3)"/>

  <!-- Shelves -->
  <rect class="shelf" x="20" y="80" width="860" height="6" fill="#2a344a" rx="1"/>
  <rect class="shelf" x="20" y="145" width="860" height="6" fill="#2a344a" rx="1"/>
  <rect class="counter" x="20" y="210" width="860" height="12" fill="#2a344a" rx="2"/>

  <!-- Lab Assets on Shelves -->
  <g class="lab-asset" style="animation-delay:0.00s">
          <!-- Retort body -->
          <path d="M 38,79 C 38,49 62,49 62,79 Z" fill="#9b59b6"/>
          <!-- Condensing tube -->
          <path d="M 56,58 Q 68,64 65,79" fill="none" stroke="#fff" stroke-width="1.5" opacity="0.7"/>
          <rect x="49" y="53.5" width="2" height="4.5" fill="#fff"/>
        </g>
  <g class="lab-asset" style="animation-delay:0.12s">
          <!-- Retort body -->
          <path d="M 88.4,79 C 88.4,50 111.6,50 111.6,79 Z" fill="#9b59b6"/>
          <!-- Condensing tube -->
          <path d="M 105.8,58.7 Q 117.4,64.5 114.5,79" fill="none" stroke="#fff" stroke-width="1.5" opacity="0.7"/>
          <rect x="99" y="54.35" width="2" height="4.35" fill="#fff"/>
        </g>
  <g class="lab-asset" style="animation-delay:0.24s">
          <!-- Neck -->
          <line x1="150" y1="70.2" x2="150" y2="57" stroke="#fff" stroke-width="2" opacity="0.6"/>
          <!-- Body -->
          <circle cx="150" cy="70.2" r="8.8" fill="#e74c3c"/>
          <circle cx="150" cy="70.2" r="8.8" fill="none" stroke="#fff" stroke-width="0.8" opacity="0.5"/>
          <!-- Bubbles inside boiling flask -->
          
        </g>
  <g class="lab-asset" style="animation-delay:0.36s">
          <line x1="200" y1="79" x2="200" y2="60" stroke="#e74c3c" stroke-width="4" stroke-linecap="round"/>
          <circle cx="200" cy="60" r="2.5" fill="#ffffff" opacity="0.7"/>
        </g>
  <g class="lab-asset" style="animation-delay:0.48s">
          <line x1="250" y1="79" x2="250" y2="60" stroke="#00d2ff" stroke-width="4" stroke-linecap="round"/>
          <circle cx="250" cy="60" r="2.5" fill="#ffffff" opacity="0.7"/>
        </g>
  
  <g class="lab-asset" style="animation-delay:0.72s">
          <!-- Retort body -->
          <path d="M 338.8,79 C 338.8,51 361.2,51 361.2,79 Z" fill="#00d2ff"/>
          <!-- Condensing tube -->
          <path d="M 355.6,59.400000000000006 Q 366.8,65 364,79" fill="none" stroke="#fff" stroke-width="1.5" opacity="0.7"/>
          <rect x="349" y="55.2" width="2" height="4.2" fill="#fff"/>
        </g>
  
  
  
  
  <g class="lab-asset" style="animation-delay:1.32s">
          <!-- Neck -->
          <line x1="600" y1="70.2" x2="600" y2="57" stroke="#fff" stroke-width="2" opacity="0.6"/>
          <!-- Body -->
          <circle cx="600" cy="70.2" r="8.8" fill="#9b59b6"/>
          <circle cx="600" cy="70.2" r="8.8" fill="none" stroke="#fff" stroke-width="0.8" opacity="0.5"/>
          <!-- Bubbles inside boiling flask -->
          
        </g>
  <g class="lab-asset" style="animation-delay:1.44s">
          <!-- Neck -->
          <line x1="650" y1="69.4" x2="650" y2="55" stroke="#fff" stroke-width="2" opacity="0.6"/>
          <!-- Body -->
          <circle cx="650" cy="69.4" r="9.600000000000001" fill="#3498db"/>
          <circle cx="650" cy="69.4" r="9.600000000000001" fill="none" stroke="#fff" stroke-width="0.8" opacity="0.5"/>
          <!-- Bubbles inside boiling flask -->
          <circle class="flask-bubble" cx="648" cy="71.4" r="1" fill="#fff"/>
                               <circle class="flask-bubble" cx="652" cy="68.4" r="0.8" fill="#fff" style="animation-delay:0.4s"/>
        </g>
  <g class="lab-asset" style="animation-delay:1.56s">
          <!-- Retort body -->
          <path d="M 688.8,79 C 688.8,51 711.2,51 711.2,79 Z" fill="#e67e22"/>
          <!-- Condensing tube -->
          <path d="M 705.6,59.400000000000006 Q 716.8,65 714,79" fill="none" stroke="#fff" stroke-width="1.5" opacity="0.7"/>
          <rect x="699" y="55.2" width="2" height="4.2" fill="#fff"/>
        </g>
  <g class="lab-asset" style="animation-delay:1.68s">
          <line x1="750" y1="79" x2="750" y2="64" stroke="#1abc9c" stroke-width="4" stroke-linecap="round"/>
          <circle cx="750" cy="64" r="2.5" fill="#ffffff" opacity="0.7"/>
        </g>
  
  
  
  
  
  
  
  
  
  <g class="lab-asset" style="animation-delay:0.84s">
          <line x1="400" y1="144" x2="400" y2="129" stroke="#e67e22" stroke-width="4" stroke-linecap="round"/>
          <circle cx="400" cy="129" r="2.5" fill="#ffffff" opacity="0.7"/>
        </g>
  <g class="lab-asset" style="animation-delay:0.96s">
          <line x1="450" y1="144" x2="450" y2="125" stroke="#1abc9c" stroke-width="4" stroke-linecap="round"/>
          <circle cx="450" cy="125" r="2.5" fill="#ffffff" opacity="0.7"/>
        </g>
  
  
  
  
  
  
  
  
  <g class="lab-asset" style="animation-delay:0.00s">
          <!-- Neck -->
          <line x1="50" y1="200.2" x2="50" y2="187" stroke="#fff" stroke-width="2" opacity="0.6"/>
          <!-- Body -->
          <circle cx="50" cy="200.2" r="8.8" fill="#e67e22"/>
          <circle cx="50" cy="200.2" r="8.8" fill="none" stroke="#fff" stroke-width="0.8" opacity="0.5"/>
          <!-- Bubbles inside boiling flask -->
          
        </g>
  <g class="lab-asset" style="animation-delay:0.12s">
          <!-- Retort body -->
          <path d="M 86.6,209 C 86.6,183 107.4,183 107.4,209 Z" fill="#3498db"/>
          <!-- Condensing tube -->
          <path d="M 102.2,190.8 Q 112.6,196 110,209" fill="none" stroke="#fff" stroke-width="1.5" opacity="0.7"/>
          <rect x="96" y="186.9" width="2" height="3.9" fill="#fff"/>
        </g>
  <g class="lab-asset" style="animation-delay:0.24s">
          <line x1="144" y1="209" x2="144" y2="194" stroke="#e67e22" stroke-width="4" stroke-linecap="round"/>
          <circle cx="144" cy="194" r="2.5" fill="#ffffff" opacity="0.7"/>
        </g>
  <g class="lab-asset" style="animation-delay:0.36s">
          <!-- Cover -->
          <rect x="186" y="174" width="10" height="35" fill="#5a2d0c" rx="1"/>
          <!-- Gold spine bands -->
          <line x1="186" y1="181" x2="196" y2="181" stroke="#1abc9c" stroke-width="1.5"/>
          <line x1="186" y1="202" x2="196" y2="202" stroke="#1abc9c" stroke-width="1.5"/>
          <!-- Page edges showing -->
          <rect x="194" y="175" width="1.5" height="33" fill="#fdfefe"/>
        </g>
  <g class="lab-asset" style="animation-delay:0.48s">
          <!-- Cover -->
          <rect x="233" y="175" width="10" height="34" fill="#5a2d0c" rx="1"/>
          <!-- Gold spine bands -->
          <line x1="233" y1="181.8" x2="243" y2="181.8" stroke="#9b59b6" stroke-width="1.5"/>
          <line x1="233" y1="202.2" x2="243" y2="202.2" stroke="#9b59b6" stroke-width="1.5"/>
          <!-- Page edges showing -->
          <rect x="241" y="176" width="1.5" height="32" fill="#fdfefe"/>
        </g>
  <g class="lab-asset" style="animation-delay:0.60s">
          <!-- Neck -->
          <line x1="285" y1="200.2" x2="285" y2="187" stroke="#fff" stroke-width="2" opacity="0.6"/>
          <!-- Body -->
          <circle cx="285" cy="200.2" r="8.8" fill="#00d2ff"/>
          <circle cx="285" cy="200.2" r="8.8" fill="none" stroke="#fff" stroke-width="0.8" opacity="0.5"/>
          <!-- Bubbles inside boiling flask -->
          
        </g>
  <g class="lab-asset" style="animation-delay:0.72s">
          <!-- Neck -->
          <line x1="332" y1="200.2" x2="332" y2="187" stroke="#fff" stroke-width="2" opacity="0.6"/>
          <!-- Body -->
          <circle cx="332" cy="200.2" r="8.8" fill="#e67e22"/>
          <circle cx="332" cy="200.2" r="8.8" fill="none" stroke="#fff" stroke-width="0.8" opacity="0.5"/>
          <!-- Bubbles inside boiling flask -->
          
        </g>
  <g class="lab-asset" style="animation-delay:0.84s">
          <!-- Neck -->
          <line x1="379" y1="200.2" x2="379" y2="187" stroke="#fff" stroke-width="2" opacity="0.6"/>
          <!-- Body -->
          <circle cx="379" cy="200.2" r="8.8" fill="#9b59b6"/>
          <circle cx="379" cy="200.2" r="8.8" fill="none" stroke="#fff" stroke-width="0.8" opacity="0.5"/>
          <!-- Bubbles inside boiling flask -->
          
        </g>
  
  <g class="lab-asset" style="animation-delay:1.08s">
          <!-- Neck -->
          <line x1="473" y1="199.4" x2="473" y2="185" stroke="#fff" stroke-width="2" opacity="0.6"/>
          <!-- Body -->
          <circle cx="473" cy="199.4" r="9.600000000000001" fill="#e74c3c"/>
          <circle cx="473" cy="199.4" r="9.600000000000001" fill="none" stroke="#fff" stroke-width="0.8" opacity="0.5"/>
          <!-- Bubbles inside boiling flask -->
          <circle class="flask-bubble" cx="471" cy="201.4" r="1" fill="#fff"/>
                               <circle class="flask-bubble" cx="475" cy="198.4" r="0.8" fill="#fff" style="animation-delay:0.4s"/>
        </g>
  <g class="lab-asset" style="animation-delay:1.20s">
          <!-- Neck -->
          <line x1="520" y1="199.4" x2="520" y2="185" stroke="#fff" stroke-width="2" opacity="0.6"/>
          <!-- Body -->
          <circle cx="520" cy="199.4" r="9.600000000000001" fill="#00d2ff"/>
          <circle cx="520" cy="199.4" r="9.600000000000001" fill="none" stroke="#fff" stroke-width="0.8" opacity="0.5"/>
          <!-- Bubbles inside boiling flask -->
          <circle class="flask-bubble" cx="518" cy="201.4" r="1" fill="#fff"/>
                               <circle class="flask-bubble" cx="522" cy="198.4" r="0.8" fill="#fff" style="animation-delay:0.4s"/>
        </g>
  <g class="lab-asset" style="animation-delay:1.32s">
          <!-- Cover -->
          <rect x="562" y="176" width="10" height="33" fill="#5a2d0c" rx="1"/>
          <!-- Gold spine bands -->
          <line x1="562" y1="182.6" x2="572" y2="182.6" stroke="#9b59b6" stroke-width="1.5"/>
          <line x1="562" y1="202.4" x2="572" y2="202.4" stroke="#9b59b6" stroke-width="1.5"/>
          <!-- Page edges showing -->
          <rect x="570" y="177" width="1.5" height="31" fill="#fdfefe"/>
        </g>
  <g class="lab-asset" style="animation-delay:1.44s">
          <line x1="614" y1="209" x2="614" y2="194" stroke="#e74c3c" stroke-width="4" stroke-linecap="round"/>
          <circle cx="614" cy="194" r="2.5" fill="#ffffff" opacity="0.7"/>
        </g>
  <g class="lab-asset" style="animation-delay:1.56s">
          <!-- Retort body -->
          <path d="M 649.8,209 C 649.8,181 672.2,181 672.2,209 Z" fill="#e74c3c"/>
          <!-- Condensing tube -->
          <path d="M 666.6,189.4 Q 677.8,195 675,209" fill="none" stroke="#fff" stroke-width="1.5" opacity="0.7"/>
          <rect x="660" y="185.2" width="2" height="4.2" fill="#fff"/>
        </g>
  <g class="lab-asset" style="animation-delay:1.68s">
          <!-- Cover -->
          <rect x="703" y="175" width="10" height="34" fill="#5a2d0c" rx="1"/>
          <!-- Gold spine bands -->
          <line x1="703" y1="181.8" x2="713" y2="181.8" stroke="#00d2ff" stroke-width="1.5"/>
          <line x1="703" y1="202.2" x2="713" y2="202.2" stroke="#00d2ff" stroke-width="1.5"/>
          <!-- Page edges showing -->
          <rect x="711" y="176" width="1.5" height="32" fill="#fdfefe"/>
        </g>
  <g class="lab-asset" style="animation-delay:1.80s">
          <!-- Cover -->
          <rect x="750" y="156" width="10" height="53" fill="#5a2d0c" rx="1"/>
          <!-- Gold spine bands -->
          <line x1="750" y1="166.6" x2="760" y2="166.6" stroke="#1abc9c" stroke-width="1.5"/>
          <line x1="750" y1="198.4" x2="760" y2="198.4" stroke="#1abc9c" stroke-width="1.5"/>
          <!-- Page edges showing -->
          <rect x="758" y="157" width="1.5" height="51" fill="#fdfefe"/>
        </g>
  <g class="lab-asset" style="animation-delay:1.92s">
          <!-- Cover -->
          <rect x="797" y="162" width="10" height="47" fill="#5a2d0c" rx="1"/>
          <!-- Gold spine bands -->
          <line x1="797" y1="171.4" x2="807" y2="171.4" stroke="#1abc9c" stroke-width="1.5"/>
          <line x1="797" y1="199.6" x2="807" y2="199.6" stroke="#1abc9c" stroke-width="1.5"/>
          <!-- Page edges showing -->
          <rect x="805" y="163" width="1.5" height="45" fill="#fdfefe"/>
        </g>
  <g class="lab-asset" style="animation-delay:2.04s">
          <!-- Retort body -->
          <path d="M 837.8,209 C 837.8,181 860.2,181 860.2,209 Z" fill="#1abc9c"/>
          <!-- Condensing tube -->
          <path d="M 854.6,189.4 Q 865.8,195 863,209" fill="none" stroke="#fff" stroke-width="1.5" opacity="0.7"/>
          <rect x="848" y="185.2" width="2" height="4.2" fill="#fff"/>
        </g>

  <!-- Summoned Familiars -->
  
        <g transform="translate(412, 195) scale(0.8999999999999999)" class="familiar-cat">
          <!-- Body -->
          <ellipse cx="0" cy="-6" rx="6" ry="8" fill="#1e272e"/>
          <!-- Head -->
          <circle cx="0" cy="-14" r="5" fill="#1e272e"/>
          <!-- Ears -->
          <polygon points="-4,-17 -4,-22 -1,-18" fill="#1e272e"/>
          <polygon points="4,-17 4,-22 1,-18" fill="#1e272e"/>
          <!-- Tail -->
          <path d="M -5,-3 C -10,-3 -12,-8 -10,-12" fill="none" stroke="#1e272e" stroke-width="2" stroke-linecap="round"/>
          <!-- Glowing Eyes -->
          <circle class="blinking-eye" cx="-1.8" cy="-14" r="0.8" fill="#f1c40f"/>
          <circle class="blinking-eye" cx="1.8" cy="-14" r="0.8" fill="#f1c40f"/>
        </g>
      
  
        <g transform="translate(724, 195) scale(0.7)" class="familiar-owl">
          <!-- Body -->
          <ellipse cx="0" cy="-8" rx="6" ry="9" fill="#d5c285"/>
          <!-- Head -->
          <circle class="owl-head" cx="0" cy="-18" r="6" fill="#d5c285"/>
          <!-- Eyes -->
          <circle cx="-2" cy="-18" r="1.8" fill="#fff"/>
          <circle cx="-2" cy="-18" r="0.8" fill="#000"/>
          <circle cx="2" cy="-18" r="1.8" fill="#fff"/>
          <circle cx="2" cy="-18" r="0.8" fill="#000"/>
          <!-- Beak -->
          <polygon points="0,-16 -1,-14 1,-14" fill="#e67e22"/>
          <!-- Wings -->
          <path d="M -6,-10 Q -10,-6 -6,-2" fill="none" stroke="#d5c285" stroke-width="2" stroke-linecap="round"/>
          <path d="M 6,-10 Q 10,-6 6,-2" fill="none" stroke="#d5c285" stroke-width="2" stroke-linecap="round"/>
        </g>
      
  
        <g transform="translate(386, 195) scale(0.8999999999999999)" class="familiar-dragon">
          <!-- Body -->
          <ellipse cx="0" cy="-6" rx="5" ry="7" fill="#00d2ff"/>
          <!-- Wings (flapping) -->
          <path class="dragon-wing-l" d="M -4,-8 Q -15,-15 -10,-3 Z" fill="#00d2ff" opacity="0.8"/>
          <path class="dragon-wing-r" d="M 4,-8 Q 15,-15 10,-3 Z" fill="#00d2ff" opacity="0.8"/>
          <!-- Head -->
          <path d="M -4,-18 L 4,-18 L 6,-13 L -6,-13 Z" fill="#00d2ff"/>
          <circle cx="0" cy="-15" r="5" fill="#00d2ff"/>
          <circle cx="-2" cy="-16" r="1" fill="#fff"/> <!-- Glow eye -->
          <circle cx="2" cy="-16" r="1" fill="#fff"/>
          <!-- Tail -->
          <path d="M 3,-3 Q 10,2 14,-2" fill="none" stroke="#00d2ff" stroke-width="2" stroke-linecap="round"/>
        </g>
      

  <!-- Floating Mana Crystal in Center -->
  
    <g class="mana-crystal">
      <!-- Outer energy vortex -->
      <circle cx="450" cy="95" r="15" fill="none" stroke="#00d2ff" stroke-dasharray="10, 15" stroke-width="1.5" opacity="0.3" filter="url(#magic-glow)" class="crystal-vortex"/>
      <circle cx="450" cy="95" r="30" fill="none" stroke="#00d2ff" stroke-dasharray="8, 25" stroke-width="1" opacity="0.18" filter="url(#magic-glow)" class="crystal-vortex" style="animation-direction:reverse; animation-duration:12s"/>

      <!-- Ambient glow -->
      <polygon points="450,60 468,95 450,130 432,95" fill="#00d2ff" opacity="0.3" filter="url(#magic-glow)"/>

      <!-- Core Crystal facets -->
      <polygon points="450,65 464,95 450,125 436,95" fill="url(#crystal-shade)" stroke="#fff" stroke-width="0.8"/>
      <!-- Facet divisions -->
      <line x1="450" y1="65" x2="450" y2="125" stroke="#fff" stroke-width="0.5" opacity="0.7"/>
      <line x1="436" y1="95" x2="464" y2="95" stroke="#fff" stroke-width="0.5" opacity="0.7"/>
    </g>
  

  <!-- Floating Sparkles (Mana Energy Particles) -->
  
    <circle class="mana-sparkle" cx="461" cy="104" r="1.5" 
      fill="#00d2ff" filter="url(#magic-glow)"
      style="animation-duration:2s; animation-delay:0s"/>
  
  
    <circle class="mana-sparkle" cx="47" cy="38" r="2.5" 
      fill="#00d2ff" filter="url(#magic-glow)"
      style="animation-duration:3s; animation-delay:0.3s"/>
  
  
    <circle class="mana-sparkle" cx="483" cy="122" r="3.5" 
      fill="#00d2ff" filter="url(#magic-glow)"
      style="animation-duration:4s; animation-delay:0.6s"/>
  
  
    <circle class="mana-sparkle" cx="69" cy="56" r="1.5" 
      fill="#00d2ff" filter="url(#magic-glow)"
      style="animation-duration:5s; animation-delay:0.8999999999999999s"/>
  
  
    <circle class="mana-sparkle" cx="505" cy="140" r="2.5" 
      fill="#00d2ff" filter="url(#magic-glow)"
      style="animation-duration:2s; animation-delay:1.2s"/>
  
  
    <circle class="mana-sparkle" cx="91" cy="74" r="3.5" 
      fill="#00d2ff" filter="url(#magic-glow)"
      style="animation-duration:3s; animation-delay:1.5s"/>
  
  
    <circle class="mana-sparkle" cx="527" cy="158" r="1.5" 
      fill="#00d2ff" filter="url(#magic-glow)"
      style="animation-duration:4s; animation-delay:1.7999999999999998s"/>
  

  <!-- Glitching smoke if open issues are high -->
  
    <!-- Thick magical fog rolling across countertop -->
    <path class="fog-cloud" d="M 0,225 C 100,210 200,210 300,225 C 400,210 500,210 600,225 C 700,210 800,210 900,225 L 900,260 L 0,260 Z" fill="rgba(155, 89, 182, 0.15)"/>
    <path class="fog-cloud" d="M 0,230 C 150,215 300,215 450,230 C 600,215 750,215 900,230 L 900,260 L 0,260 Z" fill="rgba(46, 204, 113, 0.1)" style="animation-delay:2s; animation-duration:15s"/>
  

  <!-- HUD Overlay -->
  
  <g>
    <rect x="8" y="8" width="220" height="22" rx="4" fill="rgba(0,0,0,0.6)" stroke="#2a344a" stroke-width="1"/>
    <text x="14" y="22" font-family="monospace" font-size="10" fill="#fff" font-weight="bold">
      🧪 Dasmat13's Lab · 548 transmutations
    </text>
  </g>
  <g>
    <rect x="650" y="8" width="200" height="22" rx="4" fill="rgba(0,0,0,0.6)" stroke="#2a344a" stroke-width="1"/>
    <text x="656" y="22" font-family="monospace" font-size="10" fill="#00d2ff" font-weight="bold">
      MANA: 80 units · STREAK: 0d
    </text>
  </g>

  <style>
    /* Floating Mana Crystal */
    .mana-crystal {
      animation: crystal-bob 6s ease-in-out infinite alternate;
      transform-origin: 450px 95px;
    }
    @keyframes crystal-bob {
      0%   { transform: translateY(-5px) rotate(-1deg); }
      100% { transform: translateY(5px) rotate(1deg); }
    }

    /* Crystal magic ring vortex */
    .crystal-vortex {
      transform-origin: 450px 95px;
      animation: vortex-spin 8s linear infinite;
    }
    @keyframes vortex-spin {
      to { transform: rotate(360deg); }
    }

    /* Floating mana sparkles */
    .mana-sparkle {
      animation: drift-sparkle infinite ease-in-out;
    }
    @keyframes drift-sparkle {
      0%   { transform: translateY(0) scale(0.5); opacity: 0; }
      50%  { opacity: 0.8; }
      100% { transform: translateY(-30px) scale(1.1); opacity: 0; }
    }

    /* Flask bubbles */
    .flask-bubble {
      animation: flask-bubble-rise 1.5s infinite linear;
    }
    @keyframes flask-bubble-rise {
      0%   { transform: translateY(0); opacity: 0; }
      50%  { opacity: 1; }
      100% { transform: translateY(-8px); opacity: 0; }
    }

    /* Waving lab assets */
    .lab-asset {
      animation: asset-jiggle 5s ease-in-out infinite alternate;
      transform-origin: bottom center;
    }
    @keyframes asset-jiggle {
      from { transform: rotate(-1deg) scaleY(0.99); }
      to   { transform: rotate(1deg) scaleY(1.01); }
    }

    /* Familiar animations */
    .blinking-eye {
      animation: cat-blink 4s infinite step-end;
    }
    @keyframes cat-blink {
      0%, 90% { transform: scaleY(1); }
      95%     { transform: scaleY(0.1); }
    }

    .owl-head {
      animation: owl-tilt 7s ease-in-out infinite alternate;
      transform-origin: 0px -18px;
    }
    @keyframes owl-tilt {
      0%, 40%   { transform: rotate(0deg); }
      50%, 90%  { transform: rotate(-25deg); }
      100%      { transform: rotate(15deg); }
    }

    .dragon-wing-l {
      animation: flap-l 0.8s ease-in-out infinite alternate;
      transform-origin: -4px -8px;
    }
    .dragon-wing-r {
      animation: flap-r 0.8s ease-in-out infinite alternate;
      transform-origin: 4px -8px;
    }
    @keyframes flap-l {
      from { transform: rotate(-10deg); }
      to   { transform: rotate(20deg); }
    }
    @keyframes flap-r {
      from { transform: rotate(10deg); }
      to   { transform: rotate(-20deg); }
    }

    /* Rolling magical fog clouds */
    .fog-cloud {
      animation: roll-fog 10s ease-in-out infinite alternate;
    }
    @keyframes roll-fog {
      from { transform: translateX(-15px); }
      to   { transform: translateX(15px); }
    }
  </style>
</svg>